<?xml version="1.0" standalone="yes"?>
<svg xmlns="http://www.w3.org/2000/svg" width="512" height="512">
<path style="fill:none; stroke:none;" d="M0 0L0 512L512 512L512 0L0 0z"/>
<path style="fill:#010101; stroke:none;" d="M135 208C118.57 250.592 117.173 296.369 140.427 337C153.66 360.12 172.664 378.279 185.367 402C190.846 412.233 183.204 428.038 188.149 440C196.016 459.031 210.347 462.07 227 469.652C232.678 472.237 236.307 477.861 242 480.597C251.386 485.109 268.885 484.441 279 482.532C287.859 480.861 291.688 474.143 299.015 470.136C309.82 464.226 320.524 464.185 329.789 454.535C339.727 444.185 342.574 431.877 341.961 418C341.784 413.993 339.631 409.359 340.332 405.424C341.708 397.699 349.879 388.029 353.64 381C368.617 353.007 391.516 333.351 399 301L410 306C412.32 297.563 407.695 287.165 405.424 279C400.465 261.164 394.75 243.122 391 225C384.383 227.185 380.89 237.289 377.576 243C367.271 260.754 351.806 280.262 346 300L358 299C349.267 321.509 334.889 340.975 314 353.55C248.737 392.838 164 344.774 162.129 269C160.634 208.45 222.241 155.805 282 169.5C318.942 177.966 342.225 202.832 358 236L361 236C365.294 228.286 372.389 210.306 380.105 206.028C386.535 202.463 399.759 205 407 205C422.9 205 436.591 202.91 450 193.561C496.62 161.057 499.229 95.037 460.961 55C453.829 47.5392 445.845 38.7326 436 35C437.235 44.4375 445.523 52.5861 449.73 61C459.777 81.0939 462.666 106.368 447.686 124.999C426.918 150.829 395.7 146 366 146C355.528 146 342.101 148.23 332 145.363C311.662 139.59 294.861 129.587 273 128.09C253.741 126.771 234.271 129.424 216 135.515C207.667 138.294 199.511 143.772 191 145.61C170.241 150.091 144.264 146 123 146C90.5206 146 59.4935 130.932 58.0401 94C57.4895 80.0072 64.1067 65.859 70.8727 54C74.3707 47.869 80.0471 42.1351 81 35C69.8436 39.2298 60.25 50.0529 52.7539 59C24.721 92.4587 18.9416 141.876 48.3248 177C70.8336 203.907 102.069 208 135 208z"/>
<path style="fill:#c46801; stroke:none;" d="M76 44L77 45L76 44z"/>
<path style="fill:#3dc553; stroke:none;" d="M259 181.425C236.229 184.305 215.493 190.575 199.09 208.004C143.947 266.593 195.554 362.61 274 352.844C320.314 347.079 352.243 303.601 347.83 258C343.787 216.219 302.883 175.875 259 181.425z"/>
<path style="fill:#c46801; stroke:none;" d="M316 183L317 184L316 183M322 187L323 188L322 187z"/>
<path style="fill:#f9fdf9; stroke:none;" d="M242 218L248 233L241 235L235 221L226 225L232 240L215 246C216.455 260.497 228.638 249.565 233.985 262C237.783 270.835 247.671 286.394 247.292 295.981C247.132 300.037 242.809 300.451 241.067 303.414C239.343 306.347 241.37 310.947 242 314L261 307C261.947 310.986 268.3 328.274 273.867 317.606C277.352 310.929 265.066 304.162 277 301L282 315L291 312C290.376 307.835 285.841 301.173 287.356 297.213C289.334 292.045 298.915 288.94 302.348 283.999C312.547 269.318 299.554 253.043 284 253C289.84 244.421 287.821 231.583 276.999 227.689C270.619 225.393 263.261 227.24 257 229L251 214L242 218z"/>
<path style="fill:#c46801; stroke:none;" d="M125 237L126 238L125 237z"/>
<path style="fill:#3dc553; stroke:none;" d="M246 245L253 264C259.225 261.585 282.645 246.538 264.957 241.434C258.554 239.586 251.998 243.363 246 245z"/>
<path style="fill:#c46801; stroke:none;" d="M399 257L400 258L399 257z"/>
<path style="fill:#3dc553; stroke:none;" d="M257 273L265 292C272.598 290.195 290.948 282.803 285.667 272.044C280.581 261.682 263.938 268.966 257 273z"/>
<path style="fill:#c46801; stroke:none;" d="M346 300L347 301L346 300M399 301L400 302L399 301M336 335L337 336L336 335M335 336L336 337L335 336M331 340L332 341L331 340M330 341L331 342L330 341M288 364L289 365L288 364M239 365L240 366L239 365M185 424L186 425L185 424z"/>
</svg>
